<svg xmlns="http://www.w3.org/2000/svg" xmlns:xlink="http://www.w3.org/1999/xlink" width="2000" zoomAndPan="magnify" viewBox="0 0 1500 1499.999933" height="2000" preserveAspectRatio="xMidYMid meet" version="1.0"><defs><g/><clipPath id="1555e957cc"><path d="M 750 0 C 335.785156 0 0 335.785156 0 750 C 0 1164.214844 335.785156 1500 750 1500 C 1164.214844 1500 1500 1164.214844 1500 750 C 1500 335.785156 1164.214844 0 750 0 Z M 750 0 " clip-rule="nonzero"/></clipPath><clipPath id="aa39885e1a"><path d="M 0 0 L 1500 0 L 1500 1500 L 0 1500 Z M 0 0 " clip-rule="nonzero"/></clipPath><clipPath id="ae5f59c4cd"><path d="M 750 0 C 335.785156 0 0 335.785156 0 750 C 0 1164.214844 335.785156 1500 750 1500 C 1164.214844 1500 1500 1164.214844 1500 750 C 1500 335.785156 1164.214844 0 750 0 Z M 750 0 " clip-rule="nonzero"/></clipPath><clipPath id="bfa4464c7b"><rect x="0" width="1500" y="0" height="1500"/></clipPath><clipPath id="c1b1e8d057"><rect x="0" width="1048" y="0" height="508"/></clipPath></defs><g clip-path="url(#1555e957cc)"><g transform="matrix(1, 0, 0, 1, 0, 0.000000000000112861)"><g clip-path="url(#bfa4464c7b)"><g clip-path="url(#aa39885e1a)"><g clip-path="url(#ae5f59c4cd)"><rect x="-330" width="2160" fill="#0a192f" height="2159.999904" y="-329.999985" fill-opacity="1"/></g></g></g></g></g><g transform="matrix(1, 0, 0, 1, 226, 496)"><g clip-path="url(#c1b1e8d057)"><g fill="#e6f1ff" fill-opacity="1"><g transform="translate(0.511484, 398.16133)"><g><path d="M 196.625 -36.921875 L 16 -116.59375 L 16 -142.59375 L 196.625 -232.8125 L 196.625 -189.15625 L 72.203125 -131.5 L 196.625 -80.390625 Z M 196.625 -36.921875 "/></g></g><g transform="translate(213.138413, 398.16133)"><g><path d="M 152.0625 -265.921875 L 52.921875 0 L 2.546875 0 L 101.671875 -265.921875 Z M 152.0625 -265.921875 "/></g></g><g transform="translate(367.01556, 398.16133)"><g><path d="M 89.84375 -140.78125 L 108.40625 -140.78125 C 125.738281 -140.78125 138.707031 -144.203125 147.3125 -151.046875 C 155.925781 -157.898438 160.234375 -167.875 160.234375 -180.96875 C 160.234375 -194.1875 156.625 -203.945312 149.40625 -210.25 C 142.195312 -216.5625 130.894531 -219.71875 115.5 -219.71875 L 89.84375 -219.71875 Z M 217.171875 -182.96875 C 217.171875 -154.351562 208.226562 -132.46875 190.34375 -117.3125 C 172.457031 -102.15625 147.023438 -94.578125 114.046875 -94.578125 L 89.84375 -94.578125 L 89.84375 0 L 33.46875 0 L 33.46875 -265.921875 L 118.40625 -265.921875 C 150.65625 -265.921875 175.175781 -258.976562 191.96875 -245.09375 C 208.769531 -231.207031 217.171875 -210.5 217.171875 -182.96875 Z M 217.171875 -182.96875 "/></g></g><g transform="translate(600.923373, 398.16133)"><g><path d="M 89.84375 -140.78125 L 108.40625 -140.78125 C 125.738281 -140.78125 138.707031 -144.203125 147.3125 -151.046875 C 155.925781 -157.898438 160.234375 -167.875 160.234375 -180.96875 C 160.234375 -194.1875 156.625 -203.945312 149.40625 -210.25 C 142.195312 -216.5625 130.894531 -219.71875 115.5 -219.71875 L 89.84375 -219.71875 Z M 217.171875 -182.96875 C 217.171875 -154.351562 208.226562 -132.46875 190.34375 -117.3125 C 172.457031 -102.15625 147.023438 -94.578125 114.046875 -94.578125 L 89.84375 -94.578125 L 89.84375 0 L 33.46875 0 L 33.46875 -265.921875 L 118.40625 -265.921875 C 150.65625 -265.921875 175.175781 -258.976562 191.96875 -245.09375 C 208.769531 -231.207031 217.171875 -210.5 217.171875 -182.96875 Z M 217.171875 -182.96875 "/></g></g><g transform="translate(834.831186, 398.16133)"><g><path d="M 16 -80.390625 L 140.421875 -131.5 L 16 -189.15625 L 16 -232.8125 L 196.625 -142.59375 L 196.625 -116.59375 L 16 -36.921875 Z M 16 -80.390625 "/></g></g></g></g></g></svg>